<svg width="56" height="57" viewBox="0 0 56 57" fill="none" xmlns="http://www.w3.org/2000/svg">
<g filter="url(#filter0_d_22_772)">
<rect x="4" y="0.639099" width="48" height="48" rx="8" fill="#E8F5E9" shape-rendering="crispEdges"/>
<g clip-path="url(#clip0_22_772)">
<path fill-rule="evenodd" clip-rule="evenodd" d="M14.3533 0.833618C19.8761 0.833618 24.3533 5.31077 24.3533 10.8336V0.833618H34.3533C39.8761 0.833618 44.3533 5.31077 44.3533 10.8336C44.3533 16.3564 39.8761 20.8336 34.3533 20.8336C39.8761 20.8336 44.3533 25.3108 44.3533 30.8336C44.3533 33.5759 43.2494 36.0604 41.4618 37.867L41.4244 37.9047L41.3912 37.9377C39.5842 39.7279 37.0979 40.8336 34.3533 40.8336C31.6274 40.8336 29.1562 39.7429 27.3523 37.9741C27.3289 37.9511 27.3055 37.9279 27.2822 37.9047C27.2603 37.8828 27.2385 37.8608 27.2168 37.8387C25.4457 36.0345 24.3533 33.5616 24.3533 30.8336C24.3533 36.3564 19.8761 40.8336 14.3533 40.8336C8.83048 40.8336 4.35333 36.3564 4.35333 30.8336V20.8336H14.3533C8.83048 20.8336 4.35333 16.3564 4.35333 10.8336C4.35333 5.31077 8.83048 0.833618 14.3533 0.833618ZM22.3533 10.8336C22.3533 15.2519 18.7716 18.8336 14.3533 18.8336V2.83362C18.7716 2.83362 22.3533 6.41534 22.3533 10.8336ZM42.3533 30.8336C42.3533 26.4153 38.7716 22.8336 34.3533 22.8336C29.935 22.8336 26.3533 26.4153 26.3533 30.8336H42.3533ZM6.35333 22.8336V30.8336C6.35333 35.2519 9.93505 38.8336 14.3533 38.8336C18.7716 38.8336 22.3533 35.2519 22.3533 30.8336V22.8336H6.35333ZM26.3533 18.8336V2.83362H34.3533C38.7716 2.83362 42.3533 6.41534 42.3533 10.8336C42.3533 15.2519 38.7716 18.8336 34.3533 18.8336H26.3533Z" fill="#5417D7"/>
</g>
</g>
<defs>
<filter id="filter0_d_22_772" x="0" y="0.639099" width="56" height="56" filterUnits="userSpaceOnUse" color-interpolation-filters="sRGB">
<feFlood flood-opacity="0" result="BackgroundImageFix"/>
<feColorMatrix in="SourceAlpha" type="matrix" values="0 0 0 0 0 0 0 0 0 0 0 0 0 0 0 0 0 0 127 0" result="hardAlpha"/>
<feOffset dy="4"/>
<feGaussianBlur stdDeviation="2"/>
<feComposite in2="hardAlpha" operator="out"/>
<feColorMatrix type="matrix" values="0 0 0 0 0 0 0 0 0 0 0 0 0 0 0 0 0 0 0.25 0"/>
<feBlend mode="normal" in2="BackgroundImageFix" result="effect1_dropShadow_22_772"/>
<feBlend mode="normal" in="SourceGraphic" in2="effect1_dropShadow_22_772" result="shape"/>
</filter>
<clipPath id="clip0_22_772">
<rect width="40" height="40" fill="white" transform="translate(4.35333 0.833618)"/>
</clipPath>
</defs>
</svg>
